# xmcd
#
# Track frame offsets:
#	150
#	6713
#	21427
#	36190
#	51142
#	65634
#	82433
#	97126
#	111261
#	123260
#	132282
#
# Disc length: 1819 seconds
#
# Revision: 1
# Processed by: cddbd v1.5.2PL0 Copyright (c) Steve Scherf et al.
# Submitted via: audiograbber 1.83.01
#
DISCID=a607190b
DTITLE=Dillard, Doug - You Don't Need A Reason To Sing
DYEAR=1974
DGENRE=Country
TTITLE0=Fiddle 'N' Banjo
TTITLE1=You Don't Need A Reason
TTITLE2=Try, Try To Fall In Love
TTITLE3=Something To Believe In
TTITLE4=Music Country U.S.A.
TTITLE5=Sittin' In Limbo
TTITLE6=Ninety Miles
TTITLE7=Country Rain
TTITLE8=Join The Old Refrain
TTITLE9=Spend My Money
TTITLE10=It Only Takes A Minute
EXTD=
EXTT0=
EXTT1=
EXTT2=
EXTT3=
EXTT4=
EXTT5=
EXTT6=
EXTT7=
EXTT8=
EXTT9=
EXTT10=
PLAYORDER=
